<svg xmlns="http://www.w3.org/2000/svg" viewBox="0 0 720 720"><defs><style>.cls-1{fill:#2b2e1b;}.cls-2{fill:#3c3f27;}.cls-3{fill:#8f253d;}.cls-4{fill:#89a33c;}.cls-5{fill:#a9c23b;}.cls-6{fill:#789f3f;}.cls-7{fill:#59ae46;}.cls-8{fill:#64824e;}.cls-9{fill:#af3551;}.cls-10{fill:#cc4a49;}</style></defs><title>Artboard</title><g id="Layer_1" data-name="Layer 1"><path id="Shirt" class="cls-1" d="M145.08,674.15c-11-44.15-6-78,61.27-76.92s202.75.19,260,0,61.41,43.34,71.77,59.51S404.22,699,357,704,148.94,689.7,145.08,674.15Z"/><path id="Neck" class="cls-1" d="M242.33,614.16l8.28-58.93a14.11,14.11,0,0,1,14-12.16h76.84a14.12,14.12,0,0,1,13.65,10.52l15.54,58.93A14.12,14.12,0,0,1,357,630.24H256.31A14.11,14.11,0,0,1,242.33,614.16Z"/><path id="CollarRight" class="cls-2" d="M391.12,605.73a.9.9,0,0,0,1.21-.87c-.18-6.59-1.55-35.91-11.77-42.89s-53.3,10.46-63.3,14.66a.9.9,0,0,0,0,1.67Z"/><path id="CollarLeft" class="cls-2" d="M225.21,609.41a1.27,1.27,0,0,1-1.73-1.22c.22-7.58,1.75-35.73,12.6-43s55.67,7.31,68.29,11.61a1.28,1.28,0,0,1,0,2.4Z"/><path id="HairBack" class="cls-3" d="M424,294.73a105.65,105.65,0,0,1-211.21,4.4c-.06-1.46-.09-2.92-.09-4.4,0-1.94.05-3.88.15-5.8a105.67,105.67,0,0,1,105.5-99.85C376.73,189.08,424,254.33,424,294.73Z"/><path id="EarBack" class="cls-4" d="M206,345.08c-22.88,12.71-29.87,28.6-31.14,46.4s1.9,31.78,15.57,40.68,32.1,1.9,34.64,0,35.47-15,24.79-71.36C244.14,330.62,206,345.08,206,345.08Z"/><path id="Head" class="cls-5" d="M268.63,571.43c-52-8.66-73.19-66.44-73.19-75.11S189.67,453,204.11,402,258,243.06,262.85,230.54s33.71-53,56.82-65.49,62.59-17.33,82.82-8.66,51,25.66,63.55,44.29c27.93,41.41,68.37,77,43.34,130S428.52,526.22,387.08,554.1C334.11,589.73,299,576.5,268.63,571.43Z"/><path id="Nose" class="cls-6" d="M326.13,312.1c-30.3,44.07-55.61,111.74-55.61,113.81s27.31,5.76,30.07,6.45,35.52-119.57,29-120.26S326.13,312.1,326.13,312.1Z"/><path id="ShadowSide" class="cls-7" d="M521.91,377.8l5.77-7.16a35,35,0,0,0,4.68-12.82l-4-56.25a35.09,35.09,0,0,0-60.56,32.6,35.06,35.06,0,0,0,54.14,43.63Z"/><path id="ShadowTop" class="cls-7" d="M517.22,215l-22.13-16.48L463.63,152l-68.87-20.53a91.1,91.1,0,0,0-6.9,26,70.87,70.87,0,0,0-14.59-1.53,69.77,69.77,0,0,0-54.33,25.92,58.91,58.91,0,0,0-36.59,1.77c-7.14,21.62-17.14,53.72-26.51,90a58.94,58.94,0,0,0,82.32,12.65,69.9,69.9,0,0,0,100.66-36.09A91.77,91.77,0,0,0,521.5,249Z"/><path id="EyeRight" class="cls-1" d="M432.24,345.68l-3.36-5.48a1.79,1.79,0,0,0-2.46-.58L402.16,354.5a1.79,1.79,0,0,1-2.24-.3l-18.6-19.74a1.79,1.79,0,0,0-2.53-.07l-4.67,4.4a1.79,1.79,0,0,0-.08,2.53L390.7,359a1.78,1.78,0,0,1-.37,2.75l-23.51,14.43a1.79,1.79,0,0,0-.59,2.47l3.35,5.47a1.81,1.81,0,0,0,2.47.59L398,368.8a1.79,1.79,0,0,1,2.24.3l20,21.27a1.79,1.79,0,0,0,2.53.08l4.68-4.4a1.79,1.79,0,0,0,.07-2.53l-18.1-19.22a1.78,1.78,0,0,1,.37-2.75l21.85-13.41A1.8,1.8,0,0,0,432.24,345.68Z"/><path id="EyeLeft" class="cls-8" d="M286.75,328.74l-3.74-6.1a1.42,1.42,0,0,0-1.95-.47L264.54,332.3a1.41,1.41,0,0,1-1.77-.24l-12.62-13.39a1.42,1.42,0,0,0-2-.06l-5.21,4.91a1.41,1.41,0,0,0-.06,2L253.66,337a1.43,1.43,0,0,1-.3,2.19l-15.44,9.47a1.43,1.43,0,0,0-.47,2l3.75,6.1a1.42,1.42,0,0,0,2,.47l17.72-10.87a1.41,1.41,0,0,1,1.78.23L276.31,361a1.43,1.43,0,0,0,2,.06l5.21-4.91a1.42,1.42,0,0,0,.06-2l-11.83-12.56a1.41,1.41,0,0,1,.29-2.18l14.23-8.74A1.42,1.42,0,0,0,286.75,328.74Z"/><path id="BrowRight" class="cls-1" d="M450.19,315c-16.9-11.55-51.24-25-72.63-22.3a1.62,1.62,0,0,1-1.79-1.35l-1.11-6.64a1.62,1.62,0,0,1,1.38-1.89c14.51-1.91,31.42,2.36,43.24,6.37,13.65,4.63,27.68,11.41,37,17.85a1.14,1.14,0,0,1,.27,1.61l-4.28,6A1.49,1.49,0,0,1,450.19,315Z"/><path id="BrowLeft" class="cls-8" d="M252.87,285.07l-1.1-5.26a2.31,2.31,0,0,1,1.84-2.75c9.17-1.71,42.84-7.2,64.29-.13a2.32,2.32,0,0,1,1.43,3.05l-1.95,5a2.32,2.32,0,0,1-2.87,1.36c-18.88-6.13-50.38-1-59,.54A2.32,2.32,0,0,1,252.87,285.07Z"/><path id="Hair-01" class="cls-9" d="M568.17,267.92a42.1,42.1,0,1,1-42.1-42.1A42.06,42.06,0,0,1,568.17,267.92Z"/><path id="Hair-02" class="cls-9" d="M543.15,303.07A35.15,35.15,0,1,1,508,267.92C524.35,267.92,543.15,283.66,543.15,303.07Z"/><path id="Hair-03" class="cls-9" d="M537.37,390.9a42.29,42.29,0,1,1-42.28-42.28C515,348.62,537.37,367.55,537.37,390.9Z"/><path id="Hair-04" class="cls-9" d="M566.47,348.52a40.39,40.39,0,0,1-40.4,40.4c-22.31,0-40.4-21.34-40.4-40.4a40.4,40.4,0,1,1,80.8,0Z"/><path id="HairShadow1" class="cls-3" d="M510.72,380.28A33.24,33.24,0,0,1,498.14,361c-2.19,8,1.23,17.56,9.2,23.63s18,6.82,25.1,2.66A33.26,33.26,0,0,1,510.72,380.28Z"/><path id="Hair-05" class="cls-9" d="M329.08,215c0,30.48-30.17,67.39-67.39,67.39A67.39,67.39,0,1,1,329.08,215Z"/><path id="Hair-06" class="cls-9" d="M447.65,198.54a77.72,77.72,0,1,1-155.44,0c0-42.92,38.22-77.72,77.72-77.72A77.72,77.72,0,0,1,447.65,198.54Z"/><path id="Hair-07" class="cls-9" d="M438.8,88.41A63.59,63.59,0,0,1,375.21,152c-35.12,0-64-36.59-63.59-63.58A64.36,64.36,0,0,1,353,28.84,63.58,63.58,0,0,1,438.8,88.41Z"/><path id="Hair-08" class="cls-9" d="M495.09,147.06a71.06,71.06,0,0,1-142.11,0C353,115.4,384.79,76,424,76a71.05,71.05,0,0,1,71.06,71.06Z"/><path id="Hair-09" class="cls-9" d="M549.34,194A65.38,65.38,0,0,1,484,259.33c-36.11,0-65.38-33.51-65.38-65.38,0-31.72,29.27-65.37,65.38-65.37A65.37,65.37,0,0,1,549.34,194Z"/><path id="Hair-10" class="cls-9" d="M369.91,108.83C369,58.79,328.15,18,278.11,17a93.5,93.5,0,0,0-95.35,95.35c.93,50,41.75,91.78,91.8,91.8C320.2,204.2,370.89,161.93,369.91,108.83Z"/><path id="HairShadow2" class="cls-3" d="M516.75,250.56a41.26,41.26,0,0,1-26.13,5.55c7.28,5.31,18.86,5.44,29-.43s15.74-15.85,14.86-24.77A41.32,41.32,0,0,1,516.75,250.56Z"/><path id="HairShadow3" class="cls-3" d="M295.86,220.22a44.63,44.63,0,0,1,10.48-32.62,33.42,33.42,0,0,0,4.91,62.85A44.58,44.58,0,0,1,295.86,220.22Z"/><path id="HairShadow4" class="cls-3" d="M421,116.59A44.59,44.59,0,0,1,431.53,84a33.42,33.42,0,0,0,4.91,62.85A44.59,44.59,0,0,1,421,116.59Z"/><path id="HairShadow5" class="cls-3" d="M245.41,182.24a44.63,44.63,0,0,1-33.91-4.89A33.42,33.42,0,0,0,272.65,162,44.58,44.58,0,0,1,245.41,182.24Z"/><path id="HairHighlight" class="cls-10" d="M383.32,187.91a53.11,53.11,0,0,1-1.38-5.38,56.68,56.68,0,0,1-41.28-56.73A62.71,62.71,0,0,1,327.1,47.32c-1.32-.7-2.63-1.42-4-2.17a150.5,150.5,0,0,1-13.43-8.65A62.7,62.7,0,0,0,323,135.85a56.71,56.71,0,0,0,54.05,59.09,52.31,52.31,0,0,0,36.53,25.72A52.11,52.11,0,0,1,383.32,187.91Z"/><path id="EarFront" class="cls-5" d="M454.15,507.55c14.65-.35,28.72,2.64,43.37-19.05s12.31-50.4,2.93-62.42-31.35-12-46.3-7-22.27,24-25.2,36.05S417.81,508.43,454.15,507.55Z"/><path id="CheekRight" class="cls-4" d="M352.36,458.92c-1.43-30,24.84-46.87,30.45-47.67s28-6.81,45.24,19.23-5.2,67.3-37.84,61.29S353.16,475.74,352.36,458.92Z"/><path id="CheekLeft" class="cls-4" d="M220.49,455c-10.8.12-17.81-12-15.18-28.9s7.3-44.37,28.32-47.58,18.91,30.65,18.35,33.57S248.51,454.73,220.49,455Z"/><path id="Button" class="cls-2" d="M282.56,646.79c0,4.1-2.12,7.43-6.22,7.43s-5.52-3.33-5.52-7.43,1.41-7.44,5.52-7.44S282.56,642.68,282.56,646.79Z"/></g></svg>