<svg xmlns="http://www.w3.org/2000/svg" viewBox="0 0 49.72 43.25"><defs><style>.cls-1{fill:#64824e;}</style></defs><title>EyeLeft</title><g id="Layer_2" data-name="Layer 2"><g id="Layer_1-2" data-name="Layer 1"><path id="EyeLeft" class="cls-1" d="M49.51,10.51l-3.74-6.1a1.43,1.43,0,0,0-2-.47L27.3,14.07a1.43,1.43,0,0,1-1.78-.23L12.91.45a1.42,1.42,0,0,0-2-.06L5.69,5.3a1.41,1.41,0,0,0-.06,2L16.41,18.75a1.41,1.41,0,0,1-.29,2.18L.68,30.41a1.42,1.42,0,0,0-.47,1.95L4,38.46a1.43,1.43,0,0,0,2,.47L23.63,28.06a1.43,1.43,0,0,1,1.78.23L39.07,42.8a1.42,1.42,0,0,0,2,.06L46.29,38a1.42,1.42,0,0,0,.06-2L34.52,23.38a1.41,1.41,0,0,1,.29-2.18L49,12.47A1.43,1.43,0,0,0,49.51,10.51Z"/></g></g></svg>