<svg xmlns="http://www.w3.org/2000/svg" viewBox="0 0 66.54 57.04"><defs><style>.cls-1{fill:#2b2e1b;}</style></defs><title>EyeRight</title><g id="Layer_2" data-name="Layer 2"><g id="Layer_1-2" data-name="Layer 1"><path id="EyeRight" class="cls-1" d="M66.28,11.78,62.92,6.31a1.78,1.78,0,0,0-2.46-.59L36.19,20.6A1.77,1.77,0,0,1,34,20.3L15.36.56A1.79,1.79,0,0,0,12.83.49L8.16,4.89a1.79,1.79,0,0,0-.08,2.53L24.74,25.1a1.8,1.8,0,0,1-.37,2.76L.85,42.29a1.79,1.79,0,0,0-.59,2.46l3.36,5.47a1.79,1.79,0,0,0,2.46.59L32,34.9a1.79,1.79,0,0,1,2.24.3l20,21.28a1.8,1.8,0,0,0,2.53.07l4.68-4.4a1.79,1.79,0,0,0,.07-2.53L43.47,30.4a1.79,1.79,0,0,1,.36-2.75L65.69,14.24A1.8,1.8,0,0,0,66.28,11.78Z"/></g></g></svg>