<svg xmlns="http://www.w3.org/2000/svg" xmlns:xlink="http://www.w3.org/1999/xlink" viewBox="0 0 122.61 184.16"><defs><style>.cls-1{fill:url(#linear-gradient);}</style><linearGradient id="linear-gradient" x1="53.74" y1="120.77" x2="111.48" y2="12.61" gradientUnits="userSpaceOnUse"><stop offset="0.07" stop-color="#cc4a49"/><stop offset="0.69" stop-color="#af3551"/></linearGradient></defs><title>HairHighlight</title><g id="Layer_2" data-name="Layer 2"><g id="Layer_1-2" data-name="Layer 1"><path id="HairHighlight" class="cls-1" d="M92.32,151.41A52.44,52.44,0,0,1,90.94,146,56.68,56.68,0,0,1,49.66,89.3,62.71,62.71,0,0,1,36.1,10.82q-2-1.05-4-2.17A150.5,150.5,0,0,1,18.72,0,62.7,62.7,0,0,0,32,99.35a56.71,56.71,0,0,0,54.05,59.09,52.31,52.31,0,0,0,36.53,25.72A52.11,52.11,0,0,1,92.32,151.41Z"/></g></g></svg>