<svg xmlns="http://www.w3.org/2000/svg" viewBox="0 0 720 720"><defs><style>.cls-1{fill:#2b2e1b;}.cls-2{fill:#3c3f27;}.cls-3{fill:#8f253d;}.cls-4{fill:#89a33c;}.cls-5{fill:#a9c23b;}.cls-6{fill:#789f3f;}.cls-7{fill:#59ae46;}.cls-8{fill:#64824e;}.cls-9{fill:#af3551;}.cls-10{fill:#cc4a49;}</style></defs><title>Artboard</title><g id="Layer_1" data-name="Layer 1"><path id="Shirt" class="cls-1" d="M145.08,674.15c-11-44.15-6-78,61.27-76.92s202.75.19,260,0,61.41,43.34,71.77,59.51S404.22,699,357,704,148.94,689.7,145.08,674.15Z"/><polygon id="Neck" class="cls-1" points="240.07 630.24 252.31 543.07 352.31 543.07 375.29 630.24 240.07 630.24"/><path id="CollarRight" class="cls-2" d="M392.36,606.19s-.26-36.34-11.8-44.22-65.37,15.54-65.37,15.54Z"/><path id="CollarLeft" class="cls-2" d="M223.45,610.09s.05-36.48,12.63-44.89S307.68,578,307.68,578Z"/><circle id="HairBack" class="cls-3" cx="318.38" cy="294.73" r="105.65"/><path id="EarBack" class="cls-4" d="M206,345.08c-22.88,12.71-29.87,28.6-31.14,46.4s1.9,31.78,15.57,40.68,32.1,1.9,34.64,0,35.47-15,24.79-71.36C244.14,330.62,206,345.08,206,345.08Z"/><path id="Head" class="cls-5" d="M268.63,571.43c-52-8.66-73.19-66.44-73.19-75.11S189.67,453,204.11,402,258,243.06,262.85,230.54s33.71-53,56.82-65.49,62.59-17.33,82.82-8.66,51,25.66,63.55,44.29c27.93,41.41,68.37,77,43.34,130S428.52,526.22,387.08,554.1C334.11,589.73,299,576.5,268.63,571.43Z"/><path id="Nose" class="cls-6" d="M326.13,312.1c-30.3,44.07-55.61,111.74-55.61,113.81s27.31,5.76,30.07,6.45,35.52-119.57,29-120.26S326.13,312.1,326.13,312.1Z"/><path id="ShadowSide" class="cls-7" d="M521.91,377.8l5.77-7.16a35,35,0,0,0,4.68-12.82l-4-56.25a35.09,35.09,0,0,0-60.56,32.6,35.06,35.06,0,0,0,54.14,43.63Z"/><path id="ShadowTop" class="cls-7" d="M517.22,215l-22.13-16.48L463.63,152l-68.87-20.53a91.1,91.1,0,0,0-6.9,26,70.87,70.87,0,0,0-14.59-1.53,69.77,69.77,0,0,0-54.33,25.92,58.91,58.91,0,0,0-36.59,1.77c-7.14,21.62-17.14,53.72-26.51,90a58.94,58.94,0,0,0,82.32,12.65,69.9,69.9,0,0,0,100.66-36.09A91.77,91.77,0,0,0,521.5,249Z"/><polygon id="EyeRight" class="cls-1" points="433.17 347.2 427.94 338.68 400.92 355.26 380.09 333.16 372.81 340.01 392.21 360.6 365.29 377.12 370.52 385.64 399.21 368.04 421.48 391.68 428.76 384.82 407.92 362.7 433.17 347.2"/><polygon id="EyeLeft" class="cls-8" points="287.5 329.95 282.27 321.43 263.56 332.9 249.18 317.64 241.9 324.5 254.85 338.25 236.71 349.38 241.94 357.9 261.86 345.68 277.29 362.06 284.57 355.2 270.56 340.34 287.5 329.95"/><path id="BrowRight" class="cls-1" d="M451.39,315.86c-16.8-12-53.6-26.54-75.36-22.92l-1.64-9.86c14.86-2.47,32.61,2,44.89,6.13,14.12,4.79,28.65,11.89,37.93,18.52Z"/><path id="BrowLeft" class="cls-8" d="M253.33,287.3l-2-9.79c1.82-.38,44.75-9.18,68.91.24l-3.64,9.32C295.15,278.72,253.75,287.21,253.33,287.3Z"/><circle id="Hair-01" class="cls-9" cx="526.07" cy="267.92" r="42.1"/><circle id="Hair-02" class="cls-9" cx="508" cy="303.07" r="35.15"/><circle id="Hair-03" class="cls-9" cx="495.09" cy="390.9" r="42.28"/><circle id="Hair-04" class="cls-9" cx="526.07" cy="348.52" r="40.4"/><path id="HairShadow1" class="cls-3" d="M510.72,380.28A33.24,33.24,0,0,1,498.14,361c-2.19,8,1.23,17.56,9.2,23.63s18,6.82,25.1,2.66A33.26,33.26,0,0,1,510.72,380.28Z"/><circle id="Hair-05" class="cls-9" cx="261.69" cy="215.02" r="67.39"/><circle id="Hair-06" class="cls-9" cx="369.93" cy="198.54" r="77.72"/><circle id="Hair-07" class="cls-9" cx="375.21" cy="88.41" r="63.59"/><circle id="Hair-08" class="cls-9" cx="424.03" cy="147.06" r="71.06"/><circle id="Hair-09" class="cls-9" cx="483.97" cy="193.95" r="65.38"/><circle id="Hair-10" class="cls-9" cx="276.34" cy="110.61" r="93.59"/><path id="HairShadow2" class="cls-3" d="M516.75,250.56a41.26,41.26,0,0,1-26.13,5.55c7.28,5.31,18.86,5.44,29-.43s15.74-15.85,14.86-24.77A41.32,41.32,0,0,1,516.75,250.56Z"/><path id="HairShadow3" class="cls-3" d="M295.86,220.22a44.63,44.63,0,0,1,10.48-32.62,33.42,33.42,0,0,0,4.91,62.85A44.58,44.58,0,0,1,295.86,220.22Z"/><path id="HairShadow4" class="cls-3" d="M421,116.59A44.59,44.59,0,0,1,431.53,84a33.42,33.42,0,0,0,4.91,62.85A44.59,44.59,0,0,1,421,116.59Z"/><path id="HairShadow5" class="cls-3" d="M245.41,182.24a44.63,44.63,0,0,1-33.91-4.89A33.42,33.42,0,0,0,272.65,162,44.58,44.58,0,0,1,245.41,182.24Z"/><path id="HairHighlight" class="cls-10" d="M383.32,187.91a53.11,53.11,0,0,1-1.38-5.38,56.68,56.68,0,0,1-41.28-56.73A62.71,62.71,0,0,1,327.1,47.32c-1.32-.7-2.63-1.42-4-2.17a150.5,150.5,0,0,1-13.43-8.65A62.7,62.7,0,0,0,323,135.85a56.71,56.71,0,0,0,54.05,59.09,52.31,52.31,0,0,0,36.53,25.72A52.11,52.11,0,0,1,383.32,187.91Z"/><path id="EarFront" class="cls-5" d="M454.15,507.55c14.65-.35,28.72,2.64,43.37-19.05s12.31-50.4,2.93-62.42-31.35-12-46.3-7-22.27,24-25.2,36.05S417.81,508.43,454.15,507.55Z"/><path id="CheekRight" class="cls-4" d="M352.36,458.92c-1.43-30,24.84-46.87,30.45-47.67s28-6.81,45.24,19.23-5.2,67.3-37.84,61.29S353.16,475.74,352.36,458.92Z"/><path id="CheekLeft" class="cls-4" d="M220.49,455c-10.8.12-17.81-12-15.18-28.9s7.3-44.37,28.32-47.58,18.91,30.65,18.35,33.57S248.51,454.73,220.49,455Z"/><path id="Button" class="cls-2" d="M282.56,646.79c0,4.1-2.12,7.43-6.22,7.43s-5.52-3.33-5.52-7.43,1.41-7.44,5.52-7.44S282.56,642.68,282.56,646.79Z"/></g></svg>