<svg xmlns="http://www.w3.org/2000/svg" viewBox="0 0 265.65 166.21"><defs><style>.cls-1{fill:#59ae46;}</style></defs><title>ShadowTop</title><g id="Layer_2" data-name="Layer 2"><g id="Layer_1-2" data-name="Layer 1"><path id="ShadowTop" class="cls-1" d="M261.38,83.56,239.25,67.08,207.79,20.53,138.92,0A91.1,91.1,0,0,0,132,26a70.87,70.87,0,0,0-14.59-1.53A69.77,69.77,0,0,0,63.1,50.36a58.91,58.91,0,0,0-36.59,1.77C19.37,73.76,9.37,105.85,0,142.17a58.94,58.94,0,0,0,82.32,12.65A69.9,69.9,0,0,0,183,118.73a91.75,91.75,0,0,0,82.67-1.2Z"/></g></g></svg>