<svg xmlns="http://www.w3.org/2000/svg" xmlns:xlink="http://www.w3.org/1999/xlink" viewBox="0 0 65.44 91.85"><defs><style>.cls-1{fill:url(#linear-gradient);}</style><linearGradient id="linear-gradient" x1="32.72" x2="32.72" y2="91.85" gradientUnits="userSpaceOnUse"><stop offset="0.37" stop-color="#c094ae"/><stop offset="0.68" stop-color="#7f73a8"/><stop offset="0.78" stop-color="#6968a6"/></linearGradient></defs><title>FluffRight</title><g id="Layer_2" data-name="Layer 2"><g id="HabitVector_copy" data-name="HabitVector copy"><path id="FluffRight" class="cls-1" d="M34.78,74c0,12-13.59,17.79-18.29,17.82S-2,91.12.26,73.83c1-7.54,19.22-27.95,24-29.52,0,0,.81-6.34,7.79-10.49,0,0-.56-16.41,6-21.51,0,0-3.15-19.23,13.21-9.62C61.59,8.77,67.79,23.5,64.6,32.57,60.92,43,56,42.87,56,42.87S67.26,56.57,57.28,68C45.4,81.55,34.78,74,34.78,74Z"/></g></g></svg>