<svg xmlns="http://www.w3.org/2000/svg" xmlns:xlink="http://www.w3.org/1999/xlink" viewBox="0 0 720 720"><defs><style>.cls-1{fill:url(#linear-gradient);}.cls-2{fill:url(#linear-gradient-2);}.cls-3{fill:#8f253d;}.cls-4{fill:#89a33c;}.cls-5{fill:#e6e7e8;}.cls-6{fill:url(#linear-gradient-3);}.cls-7{fill:url(#linear-gradient-4);}.cls-8{fill:#2b2e1b;}.cls-9{fill:#64824e;}.cls-10{fill:url(#linear-gradient-5);}.cls-11{fill:#af3551;}.cls-12{fill:url(#linear-gradient-6);}.cls-13{fill:url(#linear-gradient-7);}.cls-14{fill:url(#linear-gradient-8);}.cls-15{fill:#a9c23b;}.cls-16{fill:url(#linear-gradient-9);}.cls-17{fill:url(#linear-gradient-10);}</style><linearGradient id="linear-gradient" x1="140.57" y1="651" x2="538.65" y2="651" gradientUnits="userSpaceOnUse"><stop offset="0.25" stop-color="#a9c23b"/><stop offset="1" stop-color="#59ae46"/></linearGradient><linearGradient id="linear-gradient-2" x1="261.94" y1="603.19" x2="398.66" y2="585.4" gradientUnits="userSpaceOnUse"><stop offset="0.41" stop-color="#2b2e1b"/><stop offset="0.96" stop-color="#121500"/></linearGradient><linearGradient id="linear-gradient-3" x1="293.62" y1="471.33" x2="437.8" y2="182.39" gradientUnits="userSpaceOnUse"><stop offset="0.2" stop-color="#a9c23b"/><stop offset="0.5" stop-color="#59ae46"/></linearGradient><linearGradient id="linear-gradient-4" x1="295.55" y1="408.9" x2="315.58" y2="341.72" gradientUnits="userSpaceOnUse"><stop offset="0.07" stop-color="#89a33c"/><stop offset="0.62" stop-color="#3a9355"/></linearGradient><linearGradient id="linear-gradient-5" x1="370.49" y1="200.11" x2="423.25" y2="346.32" gradientUnits="userSpaceOnUse"><stop offset="0.07" stop-color="#af3551"/><stop offset="0.38" stop-color="#972842"/></linearGradient><linearGradient id="linear-gradient-6" x1="418.59" y1="193.95" x2="549.34" y2="193.95" gradientTransform="translate(159.61 -214.26) rotate(29.69)" gradientUnits="userSpaceOnUse"><stop offset="0.25" stop-color="#af3551"/><stop offset="0.8" stop-color="#8f253d"/></linearGradient><linearGradient id="linear-gradient-7" x1="304.55" y1="196.75" x2="296.14" y2="162.03" gradientTransform="translate(-40.17 96.91) rotate(-16.67)" gradientUnits="userSpaceOnUse"><stop offset="0" stop-color="#af3551"/><stop offset="0.83" stop-color="#972842"/></linearGradient><linearGradient id="linear-gradient-8" x1="348.2" y1="158.03" x2="405.94" y2="49.87" gradientUnits="userSpaceOnUse"><stop offset="0.07" stop-color="#cc4a49"/><stop offset="0.69" stop-color="#af3551"/></linearGradient><linearGradient id="linear-gradient-9" x1="466.44" y1="148.59" x2="458.02" y2="113.88" gradientTransform="matrix(-0.74, -0.67, 0.67, -0.74, 660.2, 518.67)" xlink:href="#linear-gradient-7"/><linearGradient id="linear-gradient-10" x1="311.51" y1="558.78" x2="301.19" y2="445.81" gradientTransform="translate(42.07 -23.76) rotate(4.83)" gradientUnits="userSpaceOnUse"><stop offset="0.46" stop-color="#89a33c"/><stop offset="0.7" stop-color="#379356"/></linearGradient></defs><title>Artboard</title><g id="Layer_1" data-name="Layer 1"><path id="Shirt" class="cls-1" d="M145.08,674.15c-11-44.15-6-78,61.27-76.92s202.75.19,260,0,61.41,43.34,71.77,59.51S404.22,699,357,704,148.94,689.7,145.08,674.15Z"/><path id="Neck" class="cls-2" d="M260.15,614.16l8.27-58.93a14.12,14.12,0,0,1,14-12.16h76.83c6.42,0,26.87-.91,28.5,5.29L398,617c.56,2.13-9.25,37.27-83.29,34C275.85,649.31,259.83,616.39,260.15,614.16Z"/><path id="HairBack" class="cls-3" d="M424,294.73a105.65,105.65,0,0,1-211.21,4.4c-.06-1.46-.09-2.92-.09-4.4,0-1.94.05-3.88.15-5.8a105.67,105.67,0,0,1,105.5-99.85C376.73,189.08,424,254.33,424,294.73Z"/><path id="EarBack" class="cls-4" d="M206,345.08c-22.88,12.71-29.87,28.6-31.14,46.4s1.9,31.78,15.57,40.68,32.1,1.9,34.64,0,35.47-15,24.79-71.36C244.14,330.62,206,345.08,206,345.08Z"/><path id="EarringLeft" class="cls-5" d="M201.89,416.67c0,4.11-2.12,7.44-6.23,7.44s-5.51-3.33-5.51-7.44,1.41-7.43,5.51-7.43S201.89,412.57,201.89,416.67Z"/><path id="Head" class="cls-6" d="M268.63,571.43c-52-8.66-73.19-66.44-73.19-75.11S189.67,453,204.11,402,258,243.06,262.85,230.54s33.71-53,56.82-65.49,62.59-17.33,82.82-8.66,51,25.66,63.55,44.29c27.93,41.41,68.37,77,43.34,130S428.52,526.22,387.08,554.1C334.11,589.73,299,576.5,268.63,571.43Z"/><path id="Nose" class="cls-7" d="M326.13,312.1c-30.3,44.07-55.61,111.74-55.61,113.81s27.18,31.23,29.94,31.92,35.65-145,29.11-145.73S326.13,312.1,326.13,312.1Z"/><path id="EyeRight" class="cls-8" d="M370.57,325.39h9.1s-1.38,46.87,3,46.87,24.81-11.85,38.32-26.74l8,8s-25.17,23.73-46.32,28.67C366.16,386.05,370.57,325.39,370.57,325.39Z"/><path id="EyeLeft" class="cls-9" d="M248.87,297.36l7.8-1.26s5.32,40.39,9.1,39.78,19.64-13.61,29.17-28.25l8,5.75s-18.3,23.85-35.75,31C253.49,350,248.87,297.36,248.87,297.36Z"/><path id="Hair01" class="cls-3" d="M568.17,267.92a42.1,42.1,0,1,1-42.1-42.1A42.06,42.06,0,0,1,568.17,267.92Z"/><path id="Hair02" class="cls-3" d="M543.15,303.07A35.15,35.15,0,1,1,508,267.92C524.35,267.92,543.15,283.66,543.15,303.07Z"/><path id="Hair03" class="cls-3" d="M537.37,390.9a42.29,42.29,0,1,1-42.28-42.28C515,348.62,537.37,367.55,537.37,390.9Z"/><path id="Hair04" class="cls-3" d="M566.47,348.52a40.39,40.39,0,0,1-40.4,40.4c-22.31,0-40.4-21.34-40.4-40.4a40.4,40.4,0,1,1,80.8,0Z"/><path id="BrowRight" class="cls-8" d="M450.19,315c-16.9-11.55-51.24-25-72.63-22.3a1.62,1.62,0,0,1-1.79-1.35l-1.11-6.64a1.62,1.62,0,0,1,1.38-1.89c14.51-1.91,31.42,2.36,43.24,6.37,13.65,4.63,27.68,11.41,37,17.85a1.14,1.14,0,0,1,.27,1.61l-4.28,6A1.49,1.49,0,0,1,450.19,315Z"/><path id="BrowLeft" class="cls-9" d="M259.47,281.17l-1.1-5.26a2.31,2.31,0,0,1,1.84-2.75c9.17-1.72,42.84-7.2,64.29-.14a2.33,2.33,0,0,1,1.43,3.05l-1.95,5a2.31,2.31,0,0,1-2.87,1.36c-18.88-6.12-50.38-1-59,.54A2.31,2.31,0,0,1,259.47,281.17Z"/><path id="Hair06" class="cls-10" d="M447.65,198.54a77.72,77.72,0,1,1-155.44,0c0-42.92,38.22-77.72,77.72-77.72A77.72,77.72,0,0,1,447.65,198.54Z"/><path id="Hair05" class="cls-11" d="M309.46,215c0,30.48-30.17,67.39-67.39,67.39A67.39,67.39,0,1,1,309.46,215Z"/><path id="Hair07" class="cls-11" d="M438.8,88.41A63.59,63.59,0,0,1,375.21,152c-35.12,0-64-36.59-63.59-63.58A64.36,64.36,0,0,1,353,28.84,63.58,63.58,0,0,1,438.8,88.41Z"/><path id="Hair08" class="cls-11" d="M495.09,147.06a71.06,71.06,0,0,1-142.11,0C353,115.4,384.79,76,424,76a71.05,71.05,0,0,1,71.06,71.06Z"/><path id="Hair09" class="cls-12" d="M540.76,226.34a65.38,65.38,0,0,1-89.17,24.41c-31.37-17.89-40.2-61.49-24.41-89.18s57.81-42.29,89.17-24.41a65.37,65.37,0,0,1,24.41,89.18Z"/><path id="Hair10" class="cls-11" d="M369.91,108.83C369,58.79,328.15,18,278.11,17a93.5,93.5,0,0,0-95.35,95.35c.93,50,41.75,91.78,91.8,91.8C320.2,204.2,370.89,161.93,369.91,108.83Z"/><path id="HairShadow1" class="cls-13" d="M300.42,178.86c8.43,12.33,11.78,26.43,10.37,39.25,8.08-12.17,7.64-30.05-2.33-44.62S282.2,152.11,268,155.09C280.3,158.48,292.07,166.66,300.42,178.86Z"/><path id="HairHighlight" class="cls-14" d="M386.78,188.67a52.44,52.44,0,0,1-1.38-5.38,56.68,56.68,0,0,1-41.28-56.73,62.71,62.71,0,0,1-13.56-78.48q-2-1-3.95-2.17a152.13,152.13,0,0,1-13.44-8.65,62.7,62.7,0,0,0,13.32,99.35,56.71,56.71,0,0,0,54.05,59.09,52.31,52.31,0,0,0,36.53,25.72A52.11,52.11,0,0,1,386.78,188.67Z"/><path id="EarringBack" class="cls-5" d="M463.6,487.21v8.91c5.66.29,8.59,5.3,8.59,11.45s-2.93,11.15-8.59,11.45v8.9c10.06-.52,15.28-9.42,15.28-20.35S473.66,487.74,463.6,487.21Z"/><path id="EarFront" class="cls-15" d="M454.15,507.55c14.65-.35,28.72,2.64,43.37-19.05s12.31-50.4,2.93-62.42-31.35-12-46.3-7-22.27,24-25.2,36.05S417.81,508.43,454.15,507.55Z"/><path id="CheekRight" class="cls-4" d="M352.36,458.92c-1.43-30,24.84-46.87,30.45-47.67s28-6.81,45.24,19.23-5.2,67.3-37.84,61.29S353.16,475.74,352.36,458.92Z"/><path id="CheekLeft" class="cls-4" d="M220.49,455c-10.8.12-17.81-12-15.18-28.9s7.3-44.37,28.32-47.58,18.91,30.65,18.35,33.57S248.51,454.73,220.49,455Z"/><path id="EarringRight" class="cls-5" d="M489.84,484.92c0,4.11-2.12,7.44-6.23,7.44s-5.51-3.33-5.51-7.44,1.4-7.43,5.51-7.43S489.84,480.82,489.84,484.92Z"/><path id="EarringFront" class="cls-5" d="M462.88,492a4.94,4.94,0,0,1-3.07,4.72c-3.52,1.56-4.81,5.83-4.81,10.85,0,6.34,2.06,11.48,8.07,11.48.18,0,.35,0,.53,0v8.9c-.32,0-.62.05-.94.05-10.69,0-14.35-9.13-14.35-20.4,0-9.18,2.43-16.95,9.12-19.51a4.07,4.07,0,0,1,5.44,3.68Z"/><path id="HairShadow2" class="cls-16" d="M401.6,111.93c6.19-13.6,16.51-23.76,28.21-29.2-14.6-.6-29.66,9-37,25.11s-4.69,33.53,5.22,44.15C394.59,139.69,395.49,125.39,401.6,111.93Z"/><polygon id="Lip" class="cls-17" points="257.83 505.77 266.15 464.54 288.74 482.55 305.91 467.89 352.31 497.82 290.81 505.77 257.83 505.77"/></g></svg>